<?xml version="1.0" encoding="UTF-8"?>
<svg version="1.1" xmlns="http://www.w3.org/2000/svg" width="532" height="469">
<path d="M0 0 C9.19875 -0.061875 18.3975 -0.12375 27.875 -0.1875 C30.75976074 -0.21481201 33.64452148 -0.24212402 36.61669922 -0.27026367 C38.92935773 -0.27903392 41.24202092 -0.28667658 43.5546875 -0.29296875 C44.73426025 -0.30831665 45.91383301 -0.32366455 47.12915039 -0.33947754 C57.89114059 -0.34285261 67.07438782 1.268125 75 9 C80.29661433 14.88951892 81.2136691 21.23312808 81 29 C80.40389083 32.96696459 78.95873369 36.50226126 77 40 C76.34 40 75.68 40 75 40 C74.34 41.32 73.68 42.64 73 44 C72.34 44 71.68 44 71 44 C71 44.66 71 45.32 71 46 C71.66 46 72.32 46 73 46 C73 46.66 73 47.32 73 48 C73.7425 48.226875 74.485 48.45375 75.25 48.6875 C80.40635261 51.14848647 82.22672328 55.14270426 84.3125 60.25 C86.13017285 65.58136327 86.35411127 69.56349401 85 75 C84.85691406 75.67804688 84.71382813 76.35609375 84.56640625 77.0546875 C82.75992389 83.45835599 78.25038794 87.1855403 73 91 C63.65468331 96.00641966 54.04628974 96.28508306 43.65234375 96.1953125 C42.54088989 96.19329834 41.42943604 96.19128418 40.28430176 96.18920898 C36.16865864 96.17881701 32.05307477 96.15089493 27.9375 96.125 C18.718125 96.08375 9.49875 96.0425 0 96 C0 64.32 0 32.64 0 0 Z M25 21 C24.92680379 23.69654854 24.90757463 26.36691458 24.9375 29.0625 C24.94201172 29.82111328 24.94652344 30.57972656 24.95117188 31.36132812 C24.9629932 33.24091871 24.98092922 35.12046899 25 37 C28.89543877 37.14553599 32.79017651 37.23415059 36.6875 37.3125 C37.79029297 37.35439453 38.89308594 37.39628906 40.02929688 37.43945312 C46.55627936 37.61024874 46.55627936 37.61024874 52.23046875 34.703125 C54.56265559 31.1404908 54.75920529 29.17562912 54 25 C50.63100422 21.44383779 47.62651268 20.1557279 42.81762695 19.87060547 C42.04894287 19.86947754 41.28025879 19.86834961 40.48828125 19.8671875 C39.22854492 19.86525391 39.22854492 19.86525391 37.94335938 19.86328125 C36.64108398 19.86908203 36.64108398 19.86908203 35.3125 19.875 C34.43271484 19.87113281 33.55292969 19.86726563 32.64648438 19.86328125 C31.81052734 19.86457031 30.97457031 19.86585938 30.11328125 19.8671875 C28.96533081 19.86887939 28.96533081 19.86887939 27.79418945 19.87060547 C25.97690474 19.80495808 25.97690474 19.80495808 25 21 Z M25 57 C25 62.94 25 68.88 25 75 C29.03963959 75.11512589 33.07507667 75.21454033 37.11547852 75.2746582 C38.48807102 75.29972617 39.86053102 75.33379082 41.23266602 75.37719727 C43.21050696 75.43817531 45.18934184 75.46361009 47.16796875 75.48828125 C48.95110474 75.52755737 48.95110474 75.52755737 50.77026367 75.56762695 C54.95854374 74.8315357 56.40635296 73.30119611 59 70 C59.83333333 66.5 59.83333333 66.5 59 63 C56.28865913 59.53550889 54.30623061 57.73255748 50 57 C48.0482673 56.91940003 46.09399582 56.89237757 44.140625 56.90234375 C43.02558594 56.90556641 41.91054688 56.90878906 40.76171875 56.91210938 C39.02341797 56.92467773 39.02341797 56.92467773 37.25 56.9375 C36.07566406 56.94201172 34.90132813 56.94652344 33.69140625 56.95117188 C30.79424905 56.96294894 27.89711807 56.98088412 25 57 Z " fill="#1EB1A8" transform="translate(304,184)"/>
<path d="M0 0 C1.73443359 0.00858032 1.73443359 0.00858032 3.50390625 0.01733398 C16.61207286 0.29103516 27.33651597 3.68427827 37.375 12.5 C40.36850218 15.71051513 40.36850218 15.71051513 40.390625 18.3984375 C38.88364974 21.51671707 36.57153868 23.73595179 34.125 26.125 C33.64675781 26.61484375 33.16851562 27.1046875 32.67578125 27.609375 C29.78488336 30.47676966 27.27186597 32.29111822 23.375 33.5 C22.9625 33.10167969 22.55 32.70335937 22.125 32.29296875 C15.56223513 26.27221795 9.13378731 23.98470357 0.25390625 23.3671875 C-6.67859091 23.68700419 -13.76562442 26.49337062 -18.625 31.5 C-24.55261895 39.12122437 -25.56039591 47.09807184 -24.625 56.5 C-22.89423585 64.21175926 -19.18235969 69.1605708 -12.625 73.5 C-6.43556233 77.11050531 0.372138 77.33147438 7.375 76.5 C12.25470119 75.09500864 16.12709925 72.76545369 20.125 69.6875 C23.375 67.5 23.375 67.5 26.3125 67.6875 C26.993125 67.955625 27.67375 68.22375 28.375 68.5 C28.375 69.16 28.375 69.82 28.375 70.5 C29.035 70.5 29.695 70.5 30.375 70.5 C30.375 71.16 30.375 71.82 30.375 72.5 C31.26445312 72.88285156 31.26445312 72.88285156 32.171875 73.2734375 C34.58724538 74.61816498 35.88711706 75.99214367 37.625 78.125 C38.40617187 79.07246094 38.40617187 79.07246094 39.203125 80.0390625 C39.58984375 80.52117187 39.9765625 81.00328125 40.375 81.5 C36.67122718 89.6483002 28.01889657 94.16999715 20.12109375 97.5 C7.3251347 102.1596949 -8.19961426 102.39073996 -20.69140625 96.7265625 C-32.85839659 90.89852593 -32.85839659 90.89852593 -37.625 86.5 C-37.625 85.84 -37.625 85.18 -37.625 84.5 C-38.285 84.5 -38.945 84.5 -39.625 84.5 C-39.625 83.84 -39.625 83.18 -39.625 82.5 C-40.285 82.5 -40.945 82.5 -41.625 82.5 C-43.92148649 79.9385343 -44.625 79.02032428 -44.625 75.5 C-45.285 75.5 -45.945 75.5 -46.625 75.5 C-53.28577454 63.5343943 -53.9536482 48.23384039 -51.07861328 34.98144531 C-49.13889922 28.43827545 -46.25147674 22.57784032 -41.625 17.5 C-40.965 17.5 -40.305 17.5 -39.625 17.5 C-39.625 16.84 -39.625 16.18 -39.625 15.5 C-33.99106322 10.06601505 -27.93034283 6.20083522 -20.625 3.5 C-19.47515625 2.98050781 -18.3253125 2.46101562 -17.140625 1.92578125 C-11.54782176 -0.15479352 -5.90382047 -0.03362181 0 0 Z " fill="#264A7F" transform="translate(197.625,181.5)"/>
<path d="M0 0 C1.26392578 0.00837891 2.52785156 0.01675781 3.83007812 0.02539062 C5.80717773 0.06889648 5.80717773 0.06889648 7.82421875 0.11328125 C9.13068359 0.12294922 10.43714844 0.13261719 11.78320312 0.14257812 C17.79673474 0.21289395 23.5632111 0.48569657 29.51171875 1.42578125 C25.2905572 6.45621457 20.90190996 11.21817458 16.26171875 15.86328125 C15.6378125 16.49943359 15.01390625 17.13558594 14.37109375 17.79101562 C13.77296875 18.39107422 13.17484375 18.99113281 12.55859375 19.609375 C12.02073242 20.15134521 11.48287109 20.69331543 10.92871094 21.25170898 C9.51171875 22.42578125 9.51171875 22.42578125 7.51171875 22.42578125 C7.24359375 23.06515625 6.97546875 23.70453125 6.69921875 24.36328125 C5.51171875 26.42578125 5.51171875 26.42578125 2.51171875 27.42578125 C2.51171875 28.08578125 2.51171875 28.74578125 2.51171875 29.42578125 C1.85171875 29.42578125 1.19171875 29.42578125 0.51171875 29.42578125 C0.24359375 30.06515625 -0.02453125 30.70453125 -0.30078125 31.36328125 C-1.48828125 33.42578125 -1.48828125 33.42578125 -4.48828125 34.42578125 C-4.48828125 35.08578125 -4.48828125 35.74578125 -4.48828125 36.42578125 C-6.36328125 38.55078125 -6.36328125 38.55078125 -8.48828125 40.42578125 C-9.14828125 40.42578125 -9.80828125 40.42578125 -10.48828125 40.42578125 C-10.48828125 41.08578125 -10.48828125 41.74578125 -10.48828125 42.42578125 C-11.78125 43.6953125 -11.78125 43.6953125 -13.67578125 45.23828125 C-19.98351004 50.57996149 -25.68838088 56.54630908 -31.48828125 62.42578125 C-30.55554016 63.55473001 -29.61688003 64.67879001 -28.67578125 65.80078125 C-28.15371094 66.42726563 -27.63164063 67.05375 -27.09375 67.69921875 C-25.40602386 69.64788605 -25.40602386 69.64788605 -22.48828125 71.42578125 C-22.48828125 72.08578125 -22.48828125 72.74578125 -22.48828125 73.42578125 C-21.82828125 73.42578125 -21.16828125 73.42578125 -20.48828125 73.42578125 C-20.48828125 74.08578125 -20.48828125 74.74578125 -20.48828125 75.42578125 C-19.49828125 75.75578125 -18.50828125 76.08578125 -17.48828125 76.42578125 C-17.48828125 77.08578125 -17.48828125 77.74578125 -17.48828125 78.42578125 C-16.16828125 79.08578125 -14.84828125 79.74578125 -13.48828125 80.42578125 C-13.48828125 81.08578125 -13.48828125 81.74578125 -13.48828125 82.42578125 C-12.91207031 82.67199219 -12.33585937 82.91820312 -11.7421875 83.171875 C-9.12586595 84.62740224 -7.47936289 86.31186856 -5.42578125 88.48828125 C-1.21350914 92.81176847 3.28395077 96.57408272 7.984375 100.3515625 C16.01810173 106.94493019 16.01810173 106.94493019 17.51171875 111.42578125 C19.17442162 112.76405429 20.84088056 114.0976791 22.51171875 115.42578125 C22.51171875 116.08578125 22.51171875 116.74578125 22.51171875 117.42578125 C23.40890625 117.82796875 23.40890625 117.82796875 24.32421875 118.23828125 C26.51019729 119.42495531 27.92504469 120.52177238 29.51171875 122.42578125 C29.51171875 123.08578125 29.51171875 123.74578125 29.51171875 124.42578125 C24.44419934 124.70033428 19.38111065 124.89844922 14.30786133 125.0300293 C12.58769257 125.08492659 10.86802705 125.15968408 9.1496582 125.25561523 C-5.92732225 126.07544523 -5.92732225 126.07544523 -11.07177734 121.96337891 C-13.84087203 119.35408906 -16.15521171 116.42806015 -18.48828125 113.42578125 C-19.47828125 112.93078125 -19.47828125 112.93078125 -20.48828125 112.42578125 C-20.48828125 111.76578125 -20.48828125 111.10578125 -20.48828125 110.42578125 C-21.14828125 110.42578125 -21.80828125 110.42578125 -22.48828125 110.42578125 C-22.48828125 109.76578125 -22.48828125 109.10578125 -22.48828125 108.42578125 C-23.47828125 108.09578125 -24.46828125 107.76578125 -25.48828125 107.42578125 C-25.48828125 106.76578125 -25.48828125 106.10578125 -25.48828125 105.42578125 C-26.14828125 105.42578125 -26.80828125 105.42578125 -27.48828125 105.42578125 C-27.48828125 104.76578125 -27.48828125 104.10578125 -27.48828125 103.42578125 C-28.05417969 103.18859375 -28.62007812 102.95140625 -29.203125 102.70703125 C-31.98942871 101.14479601 -33.84160639 99.22840682 -36.05078125 96.92578125 C-38.48447975 94.39768972 -40.55837526 92.37905191 -43.48828125 90.42578125 C-43.48828125 89.76578125 -43.48828125 89.10578125 -43.48828125 88.42578125 C-44.30619141 88.09900391 -44.30619141 88.09900391 -45.140625 87.765625 C-48.26525936 85.98234782 -50.5731434 83.55285376 -53.05078125 80.98828125 C-53.53224609 80.49779297 -54.01371094 80.00730469 -54.50976562 79.50195312 C-55.83944816 78.1466646 -57.16405347 76.78640002 -58.48828125 75.42578125 C-59.30087402 74.74636475 -59.30087402 74.74636475 -60.12988281 74.05322266 C-61.94959547 71.87309962 -61.83496423 70.56885708 -61.78125 67.7578125 C-61.77158203 66.86513672 -61.76191406 65.97246094 -61.75195312 65.05273438 C-61.72681641 64.12396484 -61.70167969 63.19519531 -61.67578125 62.23828125 C-61.66224609 61.29791016 -61.64871094 60.35753906 -61.63476562 59.38867188 C-61.59941221 57.06713087 -61.55006799 54.74674472 -61.48828125 52.42578125 C-60.00328125 51.93078125 -60.00328125 51.93078125 -58.48828125 51.42578125 C-58.48828125 50.76578125 -58.48828125 50.10578125 -58.48828125 49.42578125 C-57.0546875 48.015625 -57.0546875 48.015625 -55.05078125 46.36328125 C-51.88070908 43.67403131 -48.902466 40.89064748 -45.98828125 37.92578125 C-42.63537097 34.52694069 -39.17268446 31.36327395 -35.54296875 28.265625 C-32.32594026 25.38497781 -29.35772087 22.2651442 -26.37109375 19.1484375 C-24.48828125 17.42578125 -24.48828125 17.42578125 -22.48828125 17.42578125 C-22.14410156 16.575 -22.14410156 16.575 -21.79296875 15.70703125 C-20.14612572 12.82752129 -18.11705407 11.09522239 -15.61328125 8.92578125 C-11.98830528 5.80356379 -11.98830528 5.80356379 -8.73706055 2.3137207 C-5.71845087 -0.2205219 -3.90362546 -0.04952381 0 0 Z " fill="#2D2973" transform="translate(128.48828125,169.57421875)"/>
<path d="M0 0 C11.88 0.33 23.76 0.66 36 1 C36.66 2.32 37.32 3.64 38 5 C39.31632794 5.69964489 40.65223681 6.36300973 42 7 C43.46147681 8.3488442 44.8749648 9.75063768 46.25 11.1875 C50.32755531 15.35848538 54.56789508 19.21351666 59 23 C60.4393933 24.24781937 61.87691921 25.49779632 63.3125 26.75 C63.94800781 27.30171875 64.58351563 27.8534375 65.23828125 28.421875 C68.60561709 31.43829114 68.60561709 31.43829114 70 33 C70 33.66 70 34.32 70 35 C70.66 35 71.32 35 72 35 C72 35.66 72 36.32 72 37 C72.66 37 73.32 37 74 37 C74 37.66 74 38.32 74 39 C74.66 39 75.32 39 76 39 C77.15489296 40.08489945 78.29317467 41.19110318 79.359375 42.36328125 C81.02394848 44.11217369 81.02394848 44.11217369 83.328125 45.66796875 C87.60755398 49.03902837 90.07356624 52.00381602 90.96484375 57.421875 C91.5248914 63.70371133 91.75540343 70.19945791 87.796875 75.4296875 C85.01414755 78.2357339 82.15686921 80.6271353 79 83 C77.55314091 84.2601676 76.11434979 85.52972048 74.6875 86.8125 C74.05972656 87.34617187 73.43195313 87.87984375 72.78515625 88.4296875 C70.97295431 90.02379074 69.30059791 91.70133831 67.625 93.4375 C65 96 65 96 63 96 C62.731875 96.639375 62.46375 97.27875 62.1875 97.9375 C61 100 61 100 58 101 C58 101.66 58 102.32 58 103 C57.34 103 56.68 103 56 103 C56 103.66 56 104.32 56 105 C55.34 105 54.68 105 54 105 C53.505 106.485 53.505 106.485 53 108 C52.34 108 51.68 108 51 108 C51 108.66 51 109.32 51 110 C50.34 110 49.68 110 49 110 C49 110.66 49 111.32 49 112 C47.42578125 113.55078125 47.42578125 113.55078125 45.3125 115.3125 C42.92218416 117.3156837 40.86271582 119.16558551 38.86474609 121.57543945 C35.25663728 124.62914055 32.45234468 124.74709724 27.92578125 124.7421875 C27.16073776 124.75968048 26.39569427 124.77717346 25.60746765 124.79519653 C23.17558878 124.84458692 20.74480565 124.85959195 18.3125 124.875 C16.66597343 124.90673559 15.01948584 124.94056761 13.37304688 124.9765625 C1.38017981 125.1900899 1.38017981 125.1900899 -1 124 C0.612328 119.96918 3.46234596 117.24055863 6.5 114.25 C6.99886719 113.74339844 7.49773437 113.23679687 8.01171875 112.71484375 C11.74658861 109 11.74658861 109 14 109 C14.26022949 108.40195557 14.52045898 107.80391113 14.78857422 107.18774414 C16.09184311 104.83413824 17.30315913 103.67968783 19.3828125 101.99609375 C23.01306841 98.92440184 26.40534861 95.66947021 29.7421875 92.28515625 C30.49039764 91.52844131 30.49039764 91.52844131 31.25372314 90.75643921 C33.3273275 88.6557828 35.39661839 86.55096443 37.46191406 84.44213867 C38.98853669 82.88550349 40.52117047 81.33499536 42.0546875 79.78515625 C42.95687012 78.86613525 43.85905273 77.94711426 44.78857422 77.00024414 C47 75 47 75 49 75 C49.66 73.68 50.32 72.36 51 71 C51.66 71 52.32 71 53 71 C53 70.34 53 69.68 53 69 C53.66 69 54.32 69 55 69 C55.495 67.515 55.495 67.515 56 66 C56.66 66 57.32 66 58 66 C58 65.34 58 64.68 58 64 C58.66 64 59.32 64 60 64 C56.47740824 57.51101518 51.16587201 53.21221493 45.57421875 48.55078125 C44.79498047 47.78314453 44.79498047 47.78314453 44 47 C44 46.34 44 45.68 44 45 C43.34 45 42.68 45 42 45 C40.27103675 43.37343414 38.63730919 41.71571927 37 40 C35.81406884 38.80386705 34.62547618 37.61036942 33.43481445 36.41894531 C32.78096268 35.76186584 32.1271109 35.10478638 31.45344543 34.42779541 C28.51528203 31.47626902 25.57448258 28.52737508 22.63354492 25.57861328 C21.07992387 24.01992626 19.52719612 22.46034836 17.9753418 20.89990234 C15.73198673 18.64447223 13.48546552 16.3922391 11.23828125 14.140625 C10.54245438 13.43963684 9.8466275 12.73864868 9.12971497 12.01641846 C8.48531967 11.37194763 7.84092438 10.72747681 7.17700195 10.06347656 C6.61028275 9.49453674 6.04356354 8.92559692 5.45967102 8.3394165 C4.02073056 6.89569173 4.02073056 6.89569173 2 6 C2 5.34 2 4.68 2 4 C1.01 3.67 0.02 3.34 -1 3 C-0.67 2.01 -0.34 1.02 0 0 Z " fill="#0EA6D2" transform="translate(377,170)"/>
<path d="M0 0 C7.92 0 15.84 0 24 0 C22.87505131 7.87464084 22.87505131 7.87464084 21.57641602 11.14575195 C21.28808395 11.88307556 20.99975189 12.62039917 20.7026825 13.38006592 C20.38958633 14.15827698 20.07649017 14.93648804 19.75390625 15.73828125 C19.42707352 16.56845764 19.10024078 17.39863403 18.76350403 18.25396729 C17.70330832 20.94289146 16.63287382 23.62761334 15.5625 26.3125 C14.82873998 28.16950491 14.09583436 30.02684764 13.36376953 31.88452148 C11.91234665 35.56665835 10.45799951 39.24761682 9.00146484 42.92773438 C6.42049335 49.45780406 3.88915865 56.00640928 1.375 62.5625 C0.97974121 63.59109131 0.58448242 64.61968262 0.17724609 65.67944336 C-2.01690358 71.40000621 -4.17716587 77.13226109 -6.3125 82.875 C-8.34758724 88.33429303 -10.51831668 93.71548774 -12.78515625 99.08203125 C-15.49920454 105.60098326 -18.03286105 112.19472043 -20.35546875 118.86328125 C-20.57847656 119.50152832 -20.80148437 120.13977539 -21.03125 120.79736328 C-21.65570435 122.59592189 -22.27144809 124.39749782 -22.88671875 126.19921875 C-24 129 -24 129 -26 131 C-28.33837891 131.22705078 -28.33837891 131.22705078 -31.2265625 131.1953125 C-32.7734375 131.18564453 -32.7734375 131.18564453 -34.3515625 131.17578125 C-35.97191406 131.15064453 -35.97191406 131.15064453 -37.625 131.125 C-38.71296875 131.11597656 -39.8009375 131.10695313 -40.921875 131.09765625 C-43.61480152 131.07403409 -46.30729255 131.04109556 -49 131 C-50 129 -50 129 -49.10717773 126.18115234 C-48.63739502 124.99473145 -48.1676123 123.80831055 -47.68359375 122.5859375 C-47.4300563 121.93863678 -47.17651886 121.29133606 -46.91529846 120.62442017 C-46.09656195 118.53836204 -45.26740665 116.45663632 -44.4375 114.375 C-43.63905165 112.3532676 -42.84280215 110.33067948 -42.04679871 108.3079834 C-41.50724678 106.93701254 -40.9669584 105.56633131 -40.42597961 104.19592285 C-38.08783824 98.26092495 -35.84332605 92.29343147 -33.61401367 86.31689453 C-30.77188018 78.70111713 -27.87643641 71.10538761 -24.98608398 63.5078125 C-24.28442277 61.662419 -23.58358231 59.81671323 -22.88354492 57.97070312 C-19.39307737 48.76671611 -15.89786806 39.5788119 -12.05737305 30.51367188 C-10.43823776 26.66453382 -8.93523411 22.77263276 -7.4375 18.875 C-5.00444031 12.56372218 -2.51244012 6.28110029 0 0 Z " fill="#31AA82" transform="translate(280,166)"/>
<path d="M0 0 C3.47775306 1.87986652 6.07765153 3.47569447 8 7 C7.75355051 11.3128661 4.6644047 13.77908001 1.75 16.625 C1.27175781 17.11484375 0.79351562 17.6046875 0.30078125 18.109375 C-2.59011664 20.97676966 -5.10313403 22.79111822 -9 24 C-9.61875 23.40251953 -9.61875 23.40251953 -10.25 22.79296875 C-16.81276487 16.77221795 -23.24121269 14.48470357 -32.12109375 13.8671875 C-39.1940789 14.19348532 -45.91620709 17.07507562 -51 22 C-51.598125 22.5775 -52.19625 23.155 -52.8125 23.75 C-53.204375 24.1625 -53.59625 24.575 -54 25 C-53.67 23.02 -53.34 21.04 -53 19 C-52.34 19 -51.68 19 -51 19 C-50.67 18.34 -50.34 17.68 -50 17 C-42.44385329 12.37113914 -34.79928263 10.82501427 -26 11 C-25.01 11.33 -24.02 11.66 -23 12 C-22.67 11.34 -22.34 10.68 -22 10 C-19.525 10.495 -19.525 10.495 -17 11 C-16.505 12.485 -16.505 12.485 -16 14 C-13.97899623 15.24213047 -13.97899623 15.24213047 -11.5625 16.1875 C-10.75941406 16.53167969 -9.95632812 16.87585938 -9.12890625 17.23046875 C-7.06380415 18.11331376 -7.06380415 18.11331376 -5 18 C-5 16.02 -5 14.04 -5 12 C-4.01 11.67 -3.02 11.34 -2 11 C-1.26676204 8.98491642 -1.26676204 8.98491642 -1 7 C-0.34 7 0.32 7 1 7 C0.505 3.535 0.505 3.535 0 0 Z " fill="#376D88" transform="translate(230,191)"/>
<path d="M0 0 C9.3225 -0.04125 18.645 -0.0825 28.25 -0.125 C31.18938477 -0.14320801 34.12876953 -0.16141602 37.15722656 -0.18017578 C39.48502418 -0.18601659 41.81282384 -0.19111312 44.140625 -0.1953125 C45.35089355 -0.20554443 46.56116211 -0.21577637 47.80810547 -0.22631836 C48.96487793 -0.22656006 50.12165039 -0.22680176 51.31347656 -0.22705078 C52.81905121 -0.23371262 52.81905121 -0.23371262 54.3550415 -0.24050903 C57 0 57 0 61 2 C31.3 1.505 31.3 1.505 1 1 C1.33 2.98 1.66 4.96 2 7 C2.07861428 8.33975546 2.12219953 9.68232501 2.12025452 11.02438354 C2.12162918 11.76466293 2.12300385 12.50494232 2.12442017 13.26765442 C2.12082489 14.05959702 2.11722961 14.85153961 2.11352539 15.66748047 C2.11367142 16.51691727 2.11381744 17.36635406 2.1139679 18.24153137 C2.11327437 21.03344323 2.10550826 23.82528737 2.09765625 26.6171875 C2.09579008 28.55917321 2.09436712 30.5011594 2.09336853 32.44314575 C2.08955902 37.54273794 2.07974214 42.64230144 2.06866455 47.74188232 C2.05841673 52.95031344 2.05386369 58.1587492 2.04882812 63.3671875 C2.03811843 73.57813757 2.02106086 83.7890664 2 94 C8.25812664 94.05004653 14.51613263 94.08602039 20.77441406 94.10986328 C22.89617954 94.1198201 25.01793167 94.13339042 27.13964844 94.15087891 C39.60309438 94.25091601 51.67798411 94.00912281 64 92 C64 91.67 64 91.34 64 91 C65.98 91 67.96 91 70 91 C63.27403349 97.43353318 52.25655677 96.26962547 43.65234375 96.1953125 C42.54088989 96.19329834 41.42943604 96.19128418 40.28430176 96.18920898 C36.16865864 96.17881701 32.05307477 96.15089493 27.9375 96.125 C18.718125 96.08375 9.49875 96.0425 0 96 C0 64.32 0 32.64 0 0 Z " fill="#53B6A2" transform="translate(304,184)"/>
<path d="M0 0 C1.0209375 0.4021875 1.0209375 0.4021875 2.0625 0.8125 C2.0625 1.4725 2.0625 2.1325 2.0625 2.8125 C2.7225 2.8125 3.3825 2.8125 4.0625 2.8125 C4.0625 3.4725 4.0625 4.1325 4.0625 4.8125 C5.3825 5.4725 6.7025 6.1325 8.0625 6.8125 C6.0825 7.8025 6.0825 7.8025 4.0625 8.8125 C1.0625 5.0625 1.0625 5.0625 1.0625 2.8125 C-0.2575 2.8125 -1.5775 2.8125 -2.9375 2.8125 C-3.2675 3.8025 -3.5975 4.7925 -3.9375 5.8125 C-4.9275 6.4725 -5.9175 7.1325 -6.9375 7.8125 C-7.39125 8.658125 -7.845 9.50375 -8.3125 10.375 C-9.9375 12.8125 -9.9375 12.8125 -12.375 13.625 C-14.55755782 13.78469935 -16.74910732 13.8125 -18.9375 13.8125 C-19.2675 13.1525 -19.5975 12.4925 -19.9375 11.8125 C-22.52355332 11.3441735 -22.52355332 11.3441735 -25.5 11.1875 C-26.51191406 11.11273438 -27.52382812 11.03796875 -28.56640625 10.9609375 C-29.74009766 10.88746094 -29.74009766 10.88746094 -30.9375 10.8125 C-30.9375 10.4825 -30.9375 10.1525 -30.9375 9.8125 C-30.17566406 9.78671875 -29.41382813 9.7609375 -28.62890625 9.734375 C-19.73209874 9.24566148 -13.26091316 7.46097919 -6.1875 2 C-2.9375 -0.1875 -2.9375 -0.1875 0 0 Z " fill="#245F81" transform="translate(223.9375,249.1875)"/>
<path d="M0 0 C0.66 0.33 1.32 0.66 2 1 C1.67 1.99 1.34 2.98 1 4 C1.66 4 2.32 4 3 4 C4.64727147 8.84491609 5.10797916 12.01409377 4 17 C4 18.32 4 19.64 4 21 C1.5 22.75 1.5 22.75 -1 24 C-1.33 23.34 -1.66 22.68 -2 22 C-2.99 22.66 -3.98 23.32 -5 24 C-7.1875 23.625 -7.1875 23.625 -9 23 C-5.25 20 -5.25 20 -3 20 C-2.87625 19.38125 -2.7525 18.7625 -2.625 18.125 C-2 16 -2 16 0 14 C0.56597803 8.96397496 0.56597803 8.96397496 -1.8125 4.6875 C-3.4922858 3.39166524 -5.23478455 2.1768103 -7 1 C-5.5459375 1.0309375 -5.5459375 1.0309375 -4.0625 1.0625 C-1.12534105 1.35618499 -1.12534105 1.35618499 0 0 Z " fill="#17AEB9" transform="translate(362,240)"/>
<path d="M0 0 C0.33 0.99 0.66 1.98 1 3 C0.01 3.495 0.01 3.495 -1 4 C-1 5.32 -1 6.64 -1 8 C-1.66 8.66 -2.32 9.32 -3 10 C-4.32 10 -5.64 10 -7 10 C-7.144375 10.61875 -7.28875 11.2375 -7.4375 11.875 C-8 14 -8 14 -9 16 C1.23 16 11.46 16 22 16 C22 16.33 22 16.66 22 17 C17.05227976 17.16745546 12.1044028 17.32803118 7.15625 17.48217773 C5.4722693 17.53561424 3.78834761 17.59094488 2.10449219 17.64819336 C-0.31302158 17.73005852 -2.73066432 17.80515472 -5.1484375 17.87890625 C-5.9036972 17.90594131 -6.65895691 17.93297638 -7.43710327 17.96083069 C-12.77225659 18.11387171 -12.77225659 18.11387171 -15 17 C-13.387672 12.96918 -10.53765404 10.24055863 -7.5 7.25 C-7.00113281 6.74339844 -6.50226563 6.23679687 -5.98828125 5.71484375 C-2.25341139 2 -2.25341139 2 0 2 C0 1.34 0 0.68 0 0 Z " fill="#4EB4C7" transform="translate(391,277)"/>
<path d="M0 0 C1.084021 0.04713135 2.16804199 0.0942627 3.28491211 0.14282227 C5.03964844 0.21533203 5.03964844 0.21533203 6.82983398 0.28930664 C8.67738281 0.37341797 8.67738281 0.37341797 10.56225586 0.45922852 C11.79782227 0.51143555 13.03338867 0.56364258 14.30639648 0.61743164 C17.37107777 0.74759185 20.43547199 0.88257197 23.49975586 1.02172852 C23.49975586 1.35172852 23.49975586 1.68172852 23.49975586 2.02172852 C15.24975586 2.02172852 6.99975586 2.02172852 -1.50024414 2.02172852 C-1.50024414 7.96172852 -1.50024414 13.90172852 -1.50024414 20.02172852 C7.07975586 20.02172852 15.65975586 20.02172852 24.49975586 20.02172852 C24.49975586 20.35172852 24.49975586 20.68172852 24.49975586 21.02172852 C15.25975586 21.02172852 6.01975586 21.02172852 -3.50024414 21.02172852 C-4.56400111 16.76670063 -4.43173015 13.144188 -4.12524414 8.83422852 C-4.08141602 8.0975293 -4.03758789 7.36083008 -3.99243164 6.60180664 C-3.55719312 0.03091399 -3.55719312 0.03091399 0 0 Z " fill="#80C7C4" transform="translate(330.500244140625,238.978271484375)"/>
<path d="M0 0 C2.99693138 0.99897713 4.02709413 1.65130253 6 4 C6 4.66 6 5.32 6 6 C6.598125 6.268125 7.19625 6.53625 7.8125 6.8125 C9.99847854 7.99917406 11.41332594 9.09599113 13 11 C13 11.66 13 12.32 13 13 C9.29203542 13.28329101 5.69851501 13.44731303 2 13 C-0.6769433 10.17008851 -1 8.86319085 -1 5 C-0.68911632 3.32900023 -0.35919668 1.66128463 0 0 Z " fill="#263475" transform="translate(145,281)"/>
<path d="M0 0 C3.23300879 1.6165044 3.69155342 3.64355007 5 7 C6.4722088 15.57205449 6.30247321 22.31701213 2 30 C1.34 30 0.68 30 0 30 C-0.66 31.32 -1.32 32.64 -2 34 C-2.66 34 -3.32 34 -4 34 C-4 34.66 -4 35.32 -4 36 C-3.34 36 -2.68 36 -2 36 C-2 36.66 -2 37.32 -2 38 C-1.34 38.33 -0.68 38.66 0 39 C-0.99 39.495 -0.99 39.495 -2 40 C-2.99 39.67 -3.98 39.34 -5 39 C-5 36.36 -5 33.72 -5 31 C-4.01 31 -3.02 31 -2 31 C-2 30.01 -2 29.02 -2 28 C-1.34 28 -0.68 28 0 28 C0.99 24.535 0.99 24.535 2 21 C2.66 21 3.32 21 4 21 C3.855625 20.154375 3.71125 19.30875 3.5625 18.4375 C3.17853697 16.09105925 2.84739021 13.73551888 2.5625 11.375 C2.06231805 8.3739083 1.36309145 6.63531014 0 4 C0 2.68 0 1.36 0 0 Z " fill="#41B0C2" transform="translate(379,194)"/>
<path d="M0 0 C3.47775306 1.87986652 6.07765153 3.47569447 8 7 C7.63542868 10.86445604 5.67193532 12.64577589 2.9375 15.25 C2.20402344 15.95640625 1.47054687 16.6628125 0.71484375 17.390625 C0.14894531 17.92171875 -0.41695312 18.4528125 -1 19 C-2.20049285 16.5990143 -1.95183496 15.61479284 -1.5625 13 C-1.26623819 10.95991865 -1 9.06251649 -1 7 C-0.34 7 0.32 7 1 7 C0.67 4.69 0.34 2.38 0 0 Z " fill="#40889B" transform="translate(230,191)"/>
<path d="M0 0 C1.1700097 3.91736581 0.69584017 6.97959015 0 11 C7.54673035 10.59722507 14.73973247 10.17808026 22 8 C21.125 11.875 21.125 11.875 20 13 C18.29227642 13.08713831 16.58101351 13.10700007 14.87109375 13.09765625 C13.31938477 13.09282227 13.31938477 13.09282227 11.73632812 13.08789062 C10.64771484 13.07951172 9.55910156 13.07113281 8.4375 13.0625 C6.7987793 13.05573242 6.7987793 13.05573242 5.12695312 13.04882812 C2.41791505 13.03699826 -0.29101599 13.02051543 -3 13 C-4 11 -4 11 -3.22265625 8.3984375 C-2.83980469 7.40070313 -2.45695313 6.40296875 -2.0625 5.375 C-1.68222656 4.37210937 -1.30195313 3.36921875 -0.91015625 2.3359375 C-0.60980469 1.56507813 -0.30945313 0.79421875 0 0 Z " fill="#649E9B" transform="translate(234,284)"/>
<path d="M0 0 C0.33 0 0.66 0 1 0 C0.44674788 6.08577328 -0.95451418 11.2637463 -3 17 C-3.73312116 19.18617786 -4.46219249 21.3737174 -5.1875 23.5625 C-5.79166667 25.375 -6.39583333 27.1875 -7 29 C-7.66 29 -8.32 29 -9 29 C-9 30.98 -9 32.96 -9 35 C-10.98 35.495 -10.98 35.495 -13 36 C-10.76089995 27.92724259 -7.85969819 20.17339308 -4.8125 12.375 C-4.34908203 11.18003906 -3.88566406 9.98507813 -3.40820312 8.75390625 C-2.27551405 5.83460451 -1.13938352 2.91669396 0 0 Z " fill="#64AA9D" transform="translate(254,232)"/>
<path d="M0 0 C0.66 0 1.32 0 2 0 C1.91256669 1.91750286 1.8043811 3.83406665 1.6875 5.75 C1.62949219 6.81734375 1.57148438 7.8846875 1.51171875 8.984375 C0.96909846 12.1821068 0.14928855 13.62598691 -2 16 C-1.32911491 17.34177018 -0.64130071 18.67519866 0.0625 20 C1 22 1 22 1 24 C-0.98 24 -2.96 24 -5 24 C-5.33 22.68 -5.66 21.36 -6 20 C-5.34 20 -4.68 20 -4 20 C-4.33 19.01 -4.66 18.02 -5 17 C-4.2987792 11.07468425 -2.2024066 5.50601651 0 0 Z " fill="#2E9088" transform="translate(239,271)"/>
<path d="M0 0 C3.0264728 0.63344779 5.33104046 1.12457147 7.265625 3.65625 C7.65234375 4.2853125 8.0390625 4.914375 8.4375 5.5625 C10.5083154 8.82437262 10.730285 8.93367664 14.8125 9.9375 C15.864375 9.958125 16.91625 9.97875 18 10 C18.33 12.31 18.66 14.62 19 17 C19.66 17 20.32 17 21 17 C21.33 18.32 21.66 19.64 22 21 C19.5 19.625 19.5 19.625 17 18 C17 17.34 17 16.68 17 16 C16.34 16 15.68 16 15 16 C13.28875991 14.37913205 11.62981468 12.70272125 10 11 C9.11699219 10.12859375 8.23398437 9.2571875 7.32421875 8.359375 C6.45410156 7.49828125 5.58398438 6.6371875 4.6875 5.75 C3.80449219 4.87859375 2.92148437 4.0071875 2.01171875 3.109375 C0 1 0 1 0 0 Z " fill="#46ABC9" transform="translate(404,199)"/>
<path d="M0 0 C-3.29757539 1.06348719 -5.66689053 0.85759784 -9.0625 0.3125 C-16.6110078 -0.4756976 -22.80658983 1.80453051 -29 6.0625 C-29.66 6.701875 -30.32 7.34125 -31 8 C-31.598125 8.5775 -32.19625 9.155 -32.8125 9.75 C-33.4003125 10.36875 -33.4003125 10.36875 -34 11 C-33.67 9.02 -33.34 7.04 -33 5 C-32.34 5 -31.68 5 -31 5 C-30.67 4.34 -30.34 3.68 -30 3 C-20.69101898 -2.60634692 -9.86500399 -5.6051159 0 0 Z " fill="#557097" transform="translate(210,205)"/>
<path d="M0 0 C2.31 0 4.62 0 7 0 C3.0580583 4.88049925 -1.11950075 9.0580583 -6 13 C-6.625 10.6875 -6.625 10.6875 -7 8 C-5 5 -5 5 -2.9375 4 C-0.64657009 3.10301684 -0.64657009 3.10301684 0 0 Z " fill="#39467F" transform="translate(151,171)"/>
<path d="M0 0 C0.66 0.33 1.32 0.66 2 1 C-1.82156476 6.10655008 -5.31616489 10.4064798 -11.73144531 11.82519531 C-15.87529704 12.10323358 -19.98549987 11.87694477 -24.125 11.625 C-25.57276122 11.57473051 -27.02069214 11.52912223 -28.46875 11.48828125 C-31.98274966 11.37916039 -35.49026024 11.20728065 -39 11 C-39 10.67 -39 10.34 -39 10 C-29.43 10 -19.86 10 -10 10 C-9.67 8.68 -9.34 7.36 -9 6 C-7.68 6 -6.36 6 -5 6 C-5 5.01 -5 4.02 -5 3 C-4.34 3 -3.68 3 -3 3 C-3 2.34 -3 1.68 -3 1 C-2.01 0.67 -1.02 0.34 0 0 Z " fill="#22A6C7" transform="translate(422,282)"/>
<path d="M0 0 C0.33 0.66 0.66 1.32 1 2 C0.67 2.66 0.34 3.32 0 4 C0.66 4.33 1.32 4.66 2 5 C1.34 6.65 0.68 8.3 0 10 C-0.66 10 -1.32 10 -2 10 C-2 10.99 -2 11.98 -2 13 C-2.99 13 -3.98 13 -5 13 C-5 14.98 -5 16.96 -5 19 C-6.32 18.34 -7.64 17.68 -9 17 C-8.625 14.5625 -8.625 14.5625 -8 12 C-7.34 11.67 -6.68 11.34 -6 11 C-5.08831861 9.36408573 -4.2422132 7.69109879 -3.4375 6 C-1.08446866 1.08446866 -1.08446866 1.08446866 0 0 Z " fill="#17AAC2" transform="translate(379,212)"/>
<path d="M0 0 C5.92013241 0.46737887 10.97466002 2.96208261 16 6 C16.33 6.66 16.66 7.32 17 8 C14.03 7.505 14.03 7.505 11 7 C10.67 7.66 10.34 8.32 10 9 C9.34 8.34 8.68 7.68 8 7 C6.68 7 5.36 7 4 7 C4 6.01 4 5.02 4 4 C2.68 3.34 1.36 2.68 0 2 C0 1.34 0 0.68 0 0 Z " fill="#49829A" transform="translate(212,183)"/>
<path d="M0 0 C4.875 3.625 4.875 3.625 6 7 C3.15966933 11.86282294 -0.81420343 14.9009871 -6 17 C-5.42655063 14.13275314 -5.1385485 13.1385485 -3 11 C-1.68 11 -0.36 11 1 11 C1 8.69 1 6.38 1 4 C0.34 3.67 -0.32 3.34 -1 3 C-0.67 2.01 -0.34 1.02 0 0 Z " fill="#508595" transform="translate(232,257)"/>
<path d="M0 0 C0.66 0.33 1.32 0.66 2 1 C2 1.66 2 2.32 2 3 C1.01 3 0.02 3 -1 3 C-1.33 4.32 -1.66 5.64 -2 7 C-3.32 7.33 -4.64 7.66 -6 8 C-6.33 9.32 -6.66 10.64 -7 12 C-7.66 12 -8.32 12 -9 12 C-9 12.66 -9 13.32 -9 14 C-10.75 16.1875 -10.75 16.1875 -13 18 C-14.32 17.67 -15.64 17.34 -17 17 C-11.39 11.39 -5.78 5.78 0 0 Z " fill="#47B6D3" transform="translate(418,251)"/>
<path d="M0 0 C0.763125 0.20625 1.52625 0.4125 2.3125 0.625 C2.3125 1.285 2.3125 1.945 2.3125 2.625 C2.9725 2.625 3.6325 2.625 4.3125 2.625 C4.3125 3.285 4.3125 3.945 4.3125 4.625 C5.6325 5.285 6.9525 5.945 8.3125 6.625 C6.3325 7.615 6.3325 7.615 4.3125 8.625 C1.3125 4.875 1.3125 4.875 1.3125 2.625 C-0.0075 2.625 -1.3275 2.625 -2.6875 2.625 C-3.0175 3.615 -3.3475 4.605 -3.6875 5.625 C-6.75 6.8125 -6.75 6.8125 -9.6875 7.625 C-10.3475 6.965 -11.0075 6.305 -11.6875 5.625 C-2.6875 -0.375 -2.6875 -0.375 0 0 Z " fill="#518096" transform="translate(223.6875,249.375)"/>
<path d="M0 0 C1.80597656 0.02030273 1.80597656 0.02030273 3.6484375 0.04101562 C6.59942973 0.07614648 9.54947412 0.12534004 12.5 0.1875 C12.5 0.5175 12.5 0.8475 12.5 1.1875 C4.25 1.1875 -4 1.1875 -12.5 1.1875 C-13.16 2.8375 -13.82 4.4875 -14.5 6.1875 C-16.4375 7.125 -16.4375 7.125 -18.5 7.1875 C-19.49 6.5275 -20.48 5.8675 -21.5 5.1875 C-21.5 4.5275 -21.5 3.8675 -21.5 3.1875 C-14.29528695 -0.20977187 -7.87683855 -0.1687894 0 0 Z " fill="#587598" transform="translate(198.5,181.8125)"/>
<path d="M0 0 C1.98 0 3.96 0 6 0 C-0.68499811 6.39434602 -11.51001504 5.25331195 -20.0625 5.125 C-21.21427734 5.11597656 -22.36605469 5.10695313 -23.55273438 5.09765625 C-26.36871193 5.07428714 -29.18424158 5.04152565 -32 5 C-32 4.67 -32 4.34 -32 4 C-30.97229492 3.91697632 -30.97229492 3.91697632 -29.92382812 3.83227539 C-26.78240409 3.57747217 -23.64120362 3.32000565 -20.5 3.0625 C-19.42234375 2.97548828 -18.3446875 2.88847656 -17.234375 2.79882812 C-11.46753453 2.3241187 -5.73474876 1.77252077 0 1 C0 0.67 0 0.34 0 0 Z " fill="#49ABB2" transform="translate(368,275)"/>
<path d="M0 0 C0.33 0.66 0.66 1.32 1 2 C0 5 0 5 -2 7 C-2 7.66 -2 8.32 -2 9 C-3.65071396 10.02611949 -5.31970006 11.02308143 -7 12 C-7.495 12.53625 -7.99 13.0725 -8.5 13.625 C-10.51536084 15.4724141 -12.33833049 15.64031493 -15 16 C-15 15.34 -15 14.68 -15 14 C-13.49609375 12.51953125 -13.49609375 12.51953125 -11.4375 10.8125 C-7.41324753 7.39798275 -3.67809995 3.78154651 0 0 Z " fill="#49417D" transform="translate(85,205)"/>
<path d="M0 0 C0.70125 0.639375 1.4025 1.27875 2.125 1.9375 C-0.515 2.2675 -3.155 2.5975 -5.875 2.9375 C-5.875 2.2775 -5.875 1.6175 -5.875 0.9375 C-6.865 1.2675 -7.855 1.5975 -8.875 1.9375 C-11.2156065 1.65980092 -13.55124308 1.33210023 -15.875 0.9375 C-15.545 -0.0525 -15.215 -1.0425 -14.875 -2.0625 C-9.08456272 -3.30330799 -4.93894342 -3.54315506 0 0 Z " fill="#15ADBD" transform="translate(373.875,189.0625)"/>
<path d="M0 0 C13.86 0.495 13.86 0.495 28 1 C28 1.33 28 1.66 28 2 C27.06148193 2.03758423 27.06148193 2.03758423 26.10400391 2.07592773 C23.27745381 2.19175273 20.45124831 2.31453985 17.625 2.4375 C16.14773438 2.49647461 16.14773438 2.49647461 14.640625 2.55664062 C13.22910156 2.61948242 13.22910156 2.61948242 11.7890625 2.68359375 C10.91975098 2.72025146 10.05043945 2.75690918 9.15478516 2.79467773 C6.9516738 2.87401544 6.9516738 2.87401544 5 4 C5.33 5.32 5.66 6.64 6 8 C4.68 7.34 3.36 6.68 2 6 C2 5.34 2 4.68 2 4 C1.01 3.67 0.02 3.34 -1 3 C-0.67 2.01 -0.34 1.02 0 0 Z " fill="#4AB2C0" transform="translate(377,170)"/>
<path d="M0 0 C1.28720186 2.92545878 0.98777742 4.03152139 -0.1875 7.0625 C-0.4659375 7.65289062 -0.744375 8.24328125 -1.03125 8.8515625 C-2.95774272 13.12402618 -4.42805087 17.58737123 -6 22 C-6.33 22 -6.66 22 -7 22 C-6.85786703 20.10388566 -6.71113093 18.20811606 -6.5625 16.3125 C-6.48128906 15.25675781 -6.40007812 14.20101563 -6.31640625 13.11328125 C-6.03548319 10.34913703 -5.59843148 7.71054259 -5 5 C-4.01 5 -3.02 5 -2 5 C-2 4.34 -2 3.68 -2 3 C-1.34 3 -0.68 3 0 3 C0 2.01 0 1.02 0 0 Z " fill="#59AB98" transform="translate(263,270)"/>
<path d="M0 0 C0.66 0.33 1.32 0.66 2 1 C1.67 1.99 1.34 2.98 1 4 C1.66 4 2.32 4 3 4 C3.05410687 5.77049689 3.09284119 7.54146849 3.125 9.3125 C3.14820313 10.29863281 3.17140625 11.28476563 3.1953125 12.30078125 C3 15 3 15 1 18 C-0.32 17.67 -1.64 17.34 -3 17 C-2.505 16.649375 -2.01 16.29875 -1.5 15.9375 C0.82091376 12.93965306 0.45113866 10.67355767 0 7 C-2.10569795 4.31341986 -4.15101825 2.89932116 -7 1 C-5.5459375 1.0309375 -5.5459375 1.0309375 -4.0625 1.0625 C-1.12534105 1.35618499 -1.12534105 1.35618499 0 0 Z " fill="#59B4C0" transform="translate(362,240)"/>
<path d="M0 0 C2.46800047 1.15173355 4.04783565 2.04783565 6 4 C6.22705078 5.97119141 6.22705078 5.97119141 6.1953125 8.3515625 C6.18886719 9.20234375 6.18242187 10.053125 6.17578125 10.9296875 C6.15902344 11.81914062 6.14226562 12.70859375 6.125 13.625 C6.11597656 14.5221875 6.10695313 15.419375 6.09765625 16.34375 C6.0740497 18.56276586 6.0411231 20.78125077 6 23 C5.34 23.33 4.68 23.66 4 24 C3.67 17.4 3.34 10.8 3 4 C2.01 3.67 1.02 3.34 0 3 C0 2.01 0 1.02 0 0 Z " fill="#3CA6C8" transform="translate(461,219)"/>
<path d="M0 0 C10.23 0 20.46 0 31 0 C31 0.33 31 0.66 31 1 C24.83810282 2.02698286 18.77975019 2.07100708 12.54882812 1.96289062 C9.40631373 1.92372218 7.00766386 1.99744538 4 3 C1.8125 2.5625 1.8125 2.5625 0 2 C0 1.34 0 0.68 0 0 Z " fill="#2AADA0" transform="translate(305,185)"/>
<path d="M0 0 C0.33 0.66 0.66 1.32 1 2 C1.60328125 1.84402344 2.2065625 1.68804687 2.828125 1.52734375 C3.62734375 1.33269531 4.4265625 1.13804687 5.25 0.9375 C6.03890625 0.74027344 6.8278125 0.54304688 7.640625 0.33984375 C10.10394822 -0.01497267 11.65604132 0.23122456 14 1 C12.29870914 1.84761822 10.58856916 2.6774868 8.875 3.5 C7.44800781 4.19609375 7.44800781 4.19609375 5.9921875 4.90625 C2.78803369 6.07748116 0.38282687 6.20076124 -3 6 C-3.33 5.34 -3.66 4.68 -4 4 C-2.68 2.68 -1.36 1.36 0 0 Z " fill="#3C708E" transform="translate(212,274)"/>
<path d="M0 0 C1 2 1 2 0.37915039 4.06298828 C-0.13143921 5.30411377 -0.13143921 5.30411377 -0.65234375 6.5703125 C-1.01650391 7.46621094 -1.38066406 8.36210937 -1.75585938 9.28515625 C-2.34077148 10.69087891 -2.34077148 10.69087891 -2.9375 12.125 C-3.51661133 13.54232422 -3.51661133 13.54232422 -4.10742188 14.98828125 C-5.06475846 17.32843735 -6.02919991 19.66540428 -7 22 C-8.84289262 15.58734683 -5.99880607 9.31723007 -3.4375 3.375 C-2 1 -2 1 0 0 Z " fill="#5BB791" transform="translate(297,184)"/>
<path d="M0 0 C0.33 0 0.66 0 1 0 C0.74378181 7.68654573 -0.03686496 13.35216058 -4 20 C-4.99 20 -5.98 20 -7 20 C-4.80962826 13.27954125 -2.44234339 6.63275997 0 0 Z " fill="#64BB97" transform="translate(275,178)"/>
<path d="M0 0 C0.66 0.33 1.32 0.66 2 1 C1.01 3.64 0.02 6.28 -1 9 C-1.99 9 -2.98 9 -4 9 C-6.00309329 9.31421071 -8.00371336 9.6451046 -10 10 C-9.34 9.67 -8.68 9.34 -8 9 C-8 8.34 -8 7.68 -8 7 C-6.25 5.2734375 -6.25 5.2734375 -4 3.375 C-3.2575 2.74335938 -2.515 2.11171875 -1.75 1.4609375 C-1.1725 0.97882813 -0.595 0.49671875 0 0 Z " fill="#425185" transform="translate(166,190)"/>
<path d="M0 0 C0.75 1.625 0.75 1.625 1 4 C-1.52875638 8.84678307 -5.25934442 13.17320537 -10 16 C-10.99 15.67 -11.98 15.34 -13 15 C-12.67 14.34 -12.34 13.68 -12 13 C-11.34 12.855625 -10.68 12.71125 -10 12.5625 C-9.01 12.2840625 -9.01 12.2840625 -8 12 C-7.67 11.01 -7.34 10.02 -7 9 C-6.01 9 -5.02 9 -4 9 C-3.855625 8.4225 -3.71125 7.845 -3.5625 7.25 C-3.2840625 6.13625 -3.2840625 6.13625 -3 5 C-2.855625 4.278125 -2.71125 3.55625 -2.5625 2.8125 C-2.376875 2.214375 -2.19125 1.61625 -2 1 C-1.34 0.67 -0.68 0.34 0 0 Z " fill="#40A8B7" transform="translate(387,259)"/>
<path d="M0 0 C0.99 0.66 1.98 1.32 3 2 C1.85814266 6.47959418 0.56984833 10.14522751 -2 14 C-2.33 13.01 -2.66 12.02 -3 11 C-3.66 10.67 -4.32 10.34 -5 10 C-4.34 10 -3.68 10 -3 10 C-3 8.02 -3 6.04 -3 4 C-2.01 3.67 -1.02 3.34 0 3 C0 2.01 0 1.02 0 0 Z " fill="#377891" transform="translate(228,199)"/>
<path d="M0 0 C7.92 0 15.84 0 24 0 C23 7 23 7 21 9 C21.33 6.69 21.66 4.38 22 2 C14.74 1.67 7.48 1.34 0 1 C0 0.67 0 0.34 0 0 Z " fill="#69C09E" transform="translate(280,166)"/>
<path d="M0 0 C0.33 0.99 0.66 1.98 1 3 C0.01 3.495 0.01 3.495 -1 4 C-1 5.32 -1 6.64 -1 8 C-3.76223278 10.76223278 -6.20706617 10.57856291 -10 11 C-9.0919838 9.86800647 -8.17316174 8.74467637 -7.25 7.625 C-6.73953125 6.99851562 -6.2290625 6.37203125 -5.703125 5.7265625 C-3.91800519 3.91687682 -2.32050356 2.99882545 0 2 C0 1.34 0 0.68 0 0 Z " fill="#57C2D2" transform="translate(391,277)"/>
<path d="M0 0 C1.32 0.66 2.64 1.32 4 2 C3.01 2.495 3.01 2.495 2 3 C1.37400757 6.38035912 1 9.56169885 1 13 C-0.32 13.33 -1.64 13.66 -3 14 C-4.37095624 10.30962722 -3.60010967 8.29116165 -2.0625 4.75 C-1.68222656 3.85796875 -1.30195313 2.9659375 -0.91015625 2.046875 C-0.60980469 1.37140625 -0.30945313 0.6959375 0 0 Z " fill="#484D80" transform="translate(151,206)"/>
<path d="M0 0 C0.99 0.33 1.98 0.66 3 1 C2.45015228 4.87511727 0.72444669 6.59576506 -2.0625 9.25 C-2.79597656 9.95640625 -3.52945313 10.6628125 -4.28515625 11.390625 C-4.85105469 11.92171875 -5.41695312 12.4528125 -6 13 C-6.33 12.34 -6.66 11.68 -7 11 C-6.06553465 8.96855359 -5.06775224 6.96466413 -4 5 C-2.68 5 -1.36 5 0 5 C0 3.35 0 1.7 0 0 Z " fill="#5F959F" transform="translate(235,197)"/>
<path d="M0 0 C0.66 0 1.32 0 2 0 C1.9131252 1.95917659 1.80495488 3.91741871 1.6875 5.875 C1.62949219 6.96554687 1.57148438 8.05609375 1.51171875 9.1796875 C1.34285156 10.11039062 1.17398438 11.04109375 1 12 C0.01 12.66 -0.98 13.32 -2 14 C-2.66 13.67 -3.32 13.34 -4 13 C-3.52140759 11.39566191 -3.04210442 9.79153584 -2.5625 8.1875 C-2.29566406 7.29417969 -2.02882812 6.40085937 -1.75390625 5.48046875 C-1.19612127 3.64526945 -0.60655425 1.81966274 0 0 Z " fill="#4A9B93" transform="translate(239,271)"/>
<path d="M0 0 C3.45831718 3.92990589 5.11720221 8.16911584 4.8984375 13.453125 C4.65672904 15.64921899 4.36557431 17.82137473 4 20 C3.67 20 3.34 20 3 20 C3 17.03 3 14.06 3 11 C2.34 11 1.68 11 1 11 C1.33 9.02 1.66 7.04 2 5 C1.34 5 0.68 5 0 5 C0 3.35 0 1.7 0 0 Z " fill="#51B2C6" transform="translate(385,239)"/>
<path d="M0 0 C0.66 0 1.32 0 2 0 C2.33 0.99 2.66 1.98 3 3 C1.35 3.33 -0.3 3.66 -2 4 C-2.04125 4.5775 -2.0825 5.155 -2.125 5.75 C-3.44065958 9.13312465 -5.96552364 10.19222685 -9 12 C-9.66 11.67 -10.32 11.34 -11 11 C-10.38125 10.7525 -9.7625 10.505 -9.125 10.25 C-6.64931313 8.79371361 -6.04874998 7.62187494 -5 5 C-4.34 5 -3.68 5 -3 5 C-3 4.34 -3 3.68 -3 3 C-2.34 3 -1.68 3 -1 3 C-0.67 2.01 -0.34 1.02 0 0 Z " fill="#58BED9" transform="translate(433,236)"/>
<path d="M0 0 C1.32 0.33 2.64 0.66 4 1 C0.37 4.63 -3.26 8.26 -7 12 C-7.33 10.68 -7.66 9.36 -8 8 C-7.34 8 -6.68 8 -6 8 C-5.67 7.01 -5.34 6.02 -5 5 C-4.01 5 -3.02 5 -2 5 C-1.34 3.35 -0.68 1.7 0 0 Z " fill="#35A1C7" transform="translate(450,253)"/>
<path d="M0 0 C2.82378039 1.03538614 3.8243145 1.66619755 5.25 4.375 C6 7 6 7 6 11 C5.01 10.67 4.02 10.34 3 10 C2.01 10 1.02 10 0 10 C0.185625 9.278125 0.37125 8.55625 0.5625 7.8125 C1.01995307 4.87173027 0.73516357 2.85896942 0 0 Z " fill="#12AEC6" transform="translate(377,197)"/>
<path d="M0 0 C1.65 0 3.3 0 5 0 C5 0.66 5 1.32 5 2 C4.01 2.66 3.02 3.32 2 4 C1.95556653 5.99950636 1.96079185 8.00038436 2 10 C1 12.875 1 12.875 0 15 C-0.33 15 -0.66 15 -1 15 C-1.02693575 12.87506859 -1.04636628 10.75004088 -1.0625 8.625 C-1.07410156 7.44164062 -1.08570313 6.25828125 -1.09765625 5.0390625 C-1 2 -1 2 0 0 Z " fill="#2AB47E" transform="translate(297,168)"/>
<path d="M0 0 C0.66 0.99 1.32 1.98 2 3 C2.66 3.33 3.32 3.66 4 4 C3.38245741 5.31602523 2.75571258 6.62773556 2.125 7.9375 C1.77695312 8.66839844 1.42890625 9.39929688 1.0703125 10.15234375 C0 12 0 12 -2 13 C-3.18771723 9.57056481 -2.80226223 7.62215325 -1.5625 4.25 C-1.27503906 3.45078125 -0.98757813 2.6515625 -0.69140625 1.828125 C-0.46324219 1.22484375 -0.23507812 0.6215625 0 0 Z " fill="#54C293" transform="translate(279,167)"/>
<path d="M0 0 C1 2 1 2 -0.21484375 5.6953125 C-0.78133585 7.17485658 -1.35591889 8.65132181 -1.9375 10.125 C-2.22818359 10.87910156 -2.51886719 11.63320312 -2.81835938 12.41015625 C-3.53874998 14.27608602 -4.26850404 16.1383958 -5 18 C-5.33 18 -5.66 18 -6 18 C-5.67 14.37 -5.34 10.74 -5 7 C-4.34 7 -3.68 7 -3 7 C-2.87625 6.030625 -2.7525 5.06125 -2.625 4.0625 C-2.41875 3.051875 -2.2125 2.04125 -2 1 C-1.34 0.67 -0.68 0.34 0 0 Z " fill="#6AB49C" transform="translate(274,243)"/>
<path d="M0 0 C0.99 0.66 1.98 1.32 3 2 C2.34 2 1.68 2 1 2 C1 4.97 1 7.94 1 11 C-0.98 11.99 -0.98 11.99 -3 13 C-4 11 -4 11 -3.22265625 8.3984375 C-2.83980469 7.40070313 -2.45695312 6.40296875 -2.0625 5.375 C-1.68222656 4.37210938 -1.30195313 3.36921875 -0.91015625 2.3359375 C-0.60980469 1.56507813 -0.30945313 0.79421875 0 0 Z " fill="#58AD94" transform="translate(259,219)"/>
<path d="M0 0 C0.33 1.32 0.66 2.64 1 4 C8.59 4 16.18 4 24 4 C24 4.33 24 4.66 24 5 C20.06274674 5.11594584 16.12593077 5.18716464 12.1875 5.25 C11.06794922 5.28351563 9.94839844 5.31703125 8.79492188 5.3515625 C7.72177734 5.36445313 6.64863281 5.37734375 5.54296875 5.390625 C4.0583313 5.4220459 4.0583313 5.4220459 2.54370117 5.45410156 C0 5 0 5 -1.84643555 2.97558594 C-2.22711182 2.32364258 -2.60778809 1.67169922 -3 1 C-2.01 0.67 -1.02 0.34 0 0 Z " fill="#575A88" transform="translate(121,289)"/>
<path d="M0 0 C-3.30985334 1.04889718 -5.9410905 0.95206116 -9.375 0.5625 C-13.27593836 0.1551731 -17.07219893 -0.10615679 -21 0 C-17.87103427 -3.12896573 -14.34762528 -2.73776171 -10.06640625 -3.046875 C-5.95461244 -2.98401955 -3.54267397 -2.01288294 0 0 Z " fill="#457291" transform="translate(210,205)"/>
<path d="M0 0 C4.00870431 1.37441291 6.95149392 3.03388597 10 6 C11.3125 9.25 11.3125 9.25 12 12 C7.47384007 8.32167983 3.60575001 4.58913637 0 0 Z " fill="#47B3C3" transform="translate(388,183)"/>
<path d="M0 0 C-0.1875 2.375 -0.1875 2.375 -1 5 C-3.86537728 6.54885258 -6.8301373 7.29558607 -10 8 C-9.67 7.34 -9.34 6.68 -9 6 C-8.34 6 -7.68 6 -7 6 C-7 5.01 -7 4.02 -7 3 C-2.77777778 0 -2.77777778 0 0 0 Z " fill="#16A7C3" transform="translate(399,274)"/>
<path d="M0 0 C0.33 0 0.66 0 1 0 C0.67 4.62 0.34 9.24 0 14 C-0.99 14 -1.98 14 -3 14 C-3 13.01 -3 12.02 -3 11 C-2.34 11 -1.68 11 -1 11 C-1.99 10.01 -2.98 9.02 -4 8 C-2.66666667 5.33333333 -1.33333333 2.66666667 0 0 Z " fill="#44AF8E" transform="translate(268,250)"/>
<path d="M0 0 C1.32 0 2.64 0 4 0 C3.75 2.375 3.75 2.375 3 5 C1.125 6.375 1.125 6.375 -1 7 C-1.99 6.67 -2.98 6.34 -4 6 C-4 5.34 -4 4.68 -4 4 C-3.01 4 -2.02 4 -1 4 C-0.67 2.68 -0.34 1.36 0 0 Z " fill="#25347C" transform="translate(147,170)"/>
<path d="M0 0 C3.3 0 6.6 0 10 0 C9.67 1.32 9.34 2.64 9 4 C6.36 3.67 3.72 3.34 1 3 C0.67 2.01 0.34 1.02 0 0 Z " fill="#2C3366" transform="translate(137,170)"/>
<path d="M0 0 C3.96 0.33 7.92 0.66 12 1 C12 1.66 12 2.32 12 3 C12.99 3.33 13.98 3.66 15 4 C9.01006953 4.3152595 5.36439644 3.68219822 0 1 C0 0.67 0 0.34 0 0 Z " fill="#436083" transform="translate(174,276)"/>
<path d="M0 0 C1.65 0.33 3.3 0.66 5 1 C5.33 3.64 5.66 6.28 6 9 C5.34 8.67 4.68 8.34 4 8 C4 7.34 4 6.68 4 6 C2.68 5.34 1.36 4.68 0 4 C0 2.66666667 0 1.33333333 0 0 Z " fill="#4B4582" transform="translate(81,252)"/>
<path d="M0 0 C0.33 0.66 0.66 1.32 1 2 C0 5 0 5 -2 7 C-2 7.66 -2 8.32 -2 9 C-3.98 9 -5.96 9 -8 9 C-7.04270084 7.87411986 -6.08412105 6.7493285 -5.125 5.625 C-4.59132813 4.99851563 -4.05765625 4.37203125 -3.5078125 3.7265625 C-2.38567993 2.44163349 -1.20628025 1.20628025 0 0 Z " fill="#575384" transform="translate(85,205)"/>
<path d="M0 0 C1.485 0.99 1.485 0.99 3 2 C3 2.66 3 3.32 3 4 C3.61875 4.268125 4.2375 4.53625 4.875 4.8125 C7 6 7 6 9 9 C5.85669777 8.6507442 4.20508548 8.16074267 1.6875 6.1875 C0 4 0 4 0 0 Z " fill="#63C0D8" transform="translate(412,171)"/>
<path d="M0 0 C0.33 0.66 0.66 1.32 1 2 C0.01 2 -0.98 2 -2 2 C-2 2.66 -2 3.32 -2 4 C-7.28 4 -12.56 4 -18 4 C-18 3.67 -18 3.34 -18 3 C-16.80503906 2.92652344 -16.80503906 2.92652344 -15.5859375 2.8515625 C-7.61842686 2.29970605 -7.61842686 2.29970605 0 0 Z " fill="#4B6D88" transform="translate(211,256)"/>
<path d="M0 0 C0.33 0 0.66 0 1 0 C1.06058594 0.72445312 1.12117187 1.44890625 1.18359375 2.1953125 C1.61483433 7.17116533 2.07047641 12.08680391 3 17 C2.01 17 1.02 17 0 17 C0 11.39 0 5.78 0 0 Z " fill="#4B5A87" transform="translate(171,227)"/>
<path d="M0 0 C-1.485 1.98 -1.485 1.98 -3 4 C-3 3.34 -3 2.68 -3 2 C-3.598125 2.33 -4.19625 2.66 -4.8125 3 C-7 4 -7 4 -10 4 C-10 3.01 -10 2.02 -10 1 C-6.78548731 -0.60725635 -3.56387464 -0.05748185 0 0 Z " fill="#2B2B63" transform="translate(129,171)"/>
<path d="M0 0 C0.66 0 1.32 0 2 0 C2.16682272 4.92127034 2.24828052 8.50343896 0 13 C-0.33 13 -0.66 13 -1 13 C-1.02686553 11.02090602 -1.04633375 9.04171029 -1.0625 7.0625 C-1.07410156 5.96035156 -1.08570313 4.85820312 -1.09765625 3.72265625 C-1 1 -1 1 0 0 Z " fill="#4BB48C" transform="translate(299,170)"/>
<path d="M0 0 C2 1 2 1 3 2 C3.04092937 4.33297433 3.04241723 6.66705225 3 9 C1.68 9 0.36 9 -1 9 C-0.67 6.03 -0.34 3.06 0 0 Z " fill="#25708A" transform="translate(230,259)"/>
<path d="M0 0 C0.33 0 0.66 0 1 0 C1.05410687 1.77049689 1.09284119 3.54146849 1.125 5.3125 C1.14820313 6.29863281 1.17140625 7.28476563 1.1953125 8.30078125 C1 11 1 11 -1 14 C-2.32 13.67 -3.64 13.34 -5 13 C-4.360625 12.34 -3.72125 11.68 -3.0625 11 C-0.41087498 7.14309088 -0.31332879 4.62159967 0 0 Z " fill="#3EB2BA" transform="translate(364,244)"/>
<path d="M0 0 C2 1 2 1 2.75 2.9375 C2.8325 3.618125 2.915 4.29875 3 5 C1 7 1 7 -2 8 C-2 5.69 -2 3.38 -2 1 C-1.34 0.67 -0.68 0.34 0 0 Z " fill="#26296E" transform="translate(149,218)"/>
<path d="M0 0 C1.32 0.33 2.64 0.66 4 1 C1.69 3.31 -0.62 5.62 -3 8 C-3.66 7.67 -4.32 7.34 -5 7 C-5 6.34 -5 5.68 -5 5 C-4.34 5 -3.68 5 -3 5 C-3 4.34 -3 3.68 -3 3 C-1.75 1.3125 -1.75 1.3125 0 0 Z " fill="#535B8C" transform="translate(149,176)"/>
<path d="M0 0 C2.99693138 0.99897713 4.02709413 1.65130253 6 4 C6 4.66 6 5.32 6 6 C6.99 6.33 7.98 6.66 9 7 C8.01 7.495 8.01 7.495 7 8 C6.34 7.67 5.68 7.34 5 7 C5 6.34 5 5.68 5 5 C3.02 5 1.04 5 -1 5 C-0.67 3.35 -0.34 1.7 0 0 Z " fill="#535E91" transform="translate(145,281)"/>
<path d="M0 0 C0.33 0 0.66 0 1 0 C1.33 5.28 1.66 10.56 2 16 C1.34 16 0.68 16 0 16 C-1.16306443 12.45049966 -0.92365049 9.44176052 -0.5625 5.75 C-0.46066406 4.67234375 -0.35882813 3.5946875 -0.25390625 2.484375 C-0.17011719 1.66453125 -0.08632813 0.8446875 0 0 Z " fill="#39A997" transform="translate(327,244)"/>
<path d="M0 0 C1.32 0 2.64 0 4 0 C3.60196439 2.88575819 3.20990931 3.82189513 0.9375 5.75 C0.298125 6.1625 -0.34125 6.575 -1 7 C-1.04254356 5.00045254 -1.04080783 2.99958364 -1 1 C-0.67 0.67 -0.34 0.34 0 0 Z " fill="#44497A" transform="translate(138,185)"/>
<path d="M0 0 C0.66 0 1.32 0 2 0 C2.33 2.31 2.66 4.62 3 7 C3.66 7 4.32 7 5 7 C5.33 8.32 5.66 9.64 6 11 C3.625 9.9375 3.625 9.9375 1 8 C-0.3125 4.3125 -0.3125 4.3125 -1 1 C-0.67 0.67 -0.34 0.34 0 0 Z " fill="#38A9CE" transform="translate(420,209)"/>
<path d="M0 0 C4.87362847 0.45336079 7.39042389 1.7089159 11 5 C9.68 5.33 8.36 5.66 7 6 C7 5.34 7 4.68 7 4 C4.69 3.34 2.38 2.68 0 2 C0 1.34 0 0.68 0 0 Z " fill="#5DBECC" transform="translate(365,186)"/>
<path d="M0 0 C2 1.375 2 1.375 4 3 C4 3.66 4 4.32 4 5 C0.37 5 -3.26 5 -7 5 C-7 4.67 -7 4.34 -7 4 C-5.02 3.67 -3.04 3.34 -1 3 C-0.67 2.01 -0.34 1.02 0 0 Z " fill="#72789C" transform="translate(154,289)"/>
<path d="M0 0 C0.99 0.99 1.98 1.98 3 3 C-0.6125362 4.84827434 -4.2089881 6.55049545 -8 8 C-5.33333333 5.33333333 -2.66666667 2.66666667 0 0 Z " fill="#51B9CF" transform="translate(400,269)"/>
<path d="M0 0 C3.08980073 1.54490037 3.68367403 3.88868408 5 7 C5.1875 9.875 5.1875 9.875 5 12 C1.75254486 7.86687528 0 5.36067372 0 0 Z " fill="#5EC0CE" transform="translate(379,194)"/>
<path d="M0 0 C0.66 0.99 1.32 1.98 2 3 C1.01 3.66 0.02 4.32 -1 5 C-1.33 5.66 -1.66 6.32 -2 7 C-5.0625 7.625 -5.0625 7.625 -8 8 C-5.33333333 5.33333333 -2.66666667 2.66666667 0 0 Z " fill="#5F5F8C" transform="translate(118,174)"/>
<path d="M0 0 C-0.33 1.32 -0.66 2.64 -1 4 C-3.64 4 -6.28 4 -9 4 C-8 2 -8 2 -5.0625 0.875 C-2 0 -2 0 0 0 Z " fill="#52A699" transform="translate(256,292)"/>
<path d="M0 0 C0.66 0.33 1.32 0.66 2 1 C-0.31 3.31 -2.62 5.62 -5 8 C-5.33 7.34 -5.66 6.68 -6 6 C-5.67 5.01 -5.34 4.02 -5 3 C-4.34 3 -3.68 3 -3 3 C-3 2.34 -3 1.68 -3 1 C-2.01 0.67 -1.02 0.34 0 0 Z " fill="#4AA5C5" transform="translate(422,282)"/>
<path d="M0 0 C-0.66 0 -1.32 0 -2 0 C-2 0.66 -2 1.32 -2 2 C-2.66 2 -3.32 2 -4 2 C-4.33 2.99 -4.66 3.98 -5 5 C-5.66 5 -6.32 5 -7 5 C-7 3.35 -7 1.7 -7 0 C-3.98968256 -0.93423645 -3.13349732 -1.04449911 0 0 Z " fill="#35AAC7" transform="translate(435,273)"/>
<path d="M0 0 C0.66 0.33 1.32 0.66 2 1 C1.67 4.63 1.34 8.26 1 12 C0.67 12 0.34 12 0 12 C-0.19573608 10.56359829 -0.38127816 9.12580496 -0.5625 7.6875 C-0.66691406 6.88699219 -0.77132813 6.08648437 -0.87890625 5.26171875 C-1 3 -1 3 0 0 Z " fill="#56B5C4" transform="translate(383,206)"/>
<path d="M0 0 C3.39914975 1.13304992 4.05254451 2.12518475 6 5 C-0.15234375 4.4140625 -0.15234375 4.4140625 -2 4 C-2.33 3.34 -2.66 2.68 -3 2 C-2.01 1.34 -1.02 0.68 0 0 Z " fill="#233E73" transform="translate(176,272)"/>
<path d="M0 0 C1.32 0 2.64 0 4 0 C3 3 3 3 -0.0625 4.6875 C-1.031875 5.120625 -2.00125 5.55375 -3 6 C-2.42655063 3.13275314 -2.1385485 2.1385485 0 0 Z " fill="#487D98" transform="translate(229,268)"/>
<path d="M0 0 C3 0 3 0 4.6875 1.25 C6 3 6 3 6 7 C5.34 7 4.68 7 4 7 C4 6.34 4 5.68 4 5 C3.34 5 2.68 5 2 5 C1.34 3.35 0.68 1.7 0 0 Z " fill="#434A78" transform="translate(154,259)"/>
<path d="M0 0 C2 1.3125 2 1.3125 4 3 C4 3.99 4 4.98 4 6 C3.01 6 2.02 6 1 6 C1 5.34 1 4.68 1 4 C0.34 4 -0.32 4 -1 4 C-1 4.66 -1 5.32 -1 6 C-1.66 6 -2.32 6 -3 6 C-2 4 -1 2 0 0 Z " fill="#535B89" transform="translate(155,200)"/>
<path d="M0 0 C0.33 0.66 0.66 1.32 1 2 C-0.75 4.0625 -0.75 4.0625 -3 6 C-5.25 5.75 -5.25 5.75 -7 5 C-4.63707344 2.47411298 -3.33537489 1.11179163 0 0 Z " fill="#46B3CF" transform="translate(408,263)"/>
<path d="M0 0 C0.6875 1.6875 0.6875 1.6875 1 4 C-0.4375 6.75 -0.4375 6.75 -2 9 C-2.97110486 5.97878489 -3.13617383 3.99536737 -2 1 C-1.34 0.67 -0.68 0.34 0 0 Z " fill="#46B5C7" transform="translate(387,259)"/>
<path d="M0 0 C2.31 0.66 4.62 1.32 7 2 C6.01 3.32 5.02 4.64 4 6 C2.62437146 4.71034824 1.29233607 3.37310707 0 2 C0 1.34 0 0.68 0 0 Z " fill="#4A658B" transform="translate(183,255)"/>
<path d="M0 0 C0.33 0 0.66 0 1 0 C1 2.97 1 5.94 1 9 C0.01 9.495 0.01 9.495 -1 10 C-2.25 3.375 -2.25 3.375 0 0 Z " fill="#18A6C6" transform="translate(387,250)"/>
<path d="M0 0 C0.99 0 1.98 0 3 0 C2.67 2.31 2.34 4.62 2 7 C1.34 7 0.68 7 0 7 C-1.125 2.25 -1.125 2.25 0 0 Z " fill="#47567F" transform="translate(171,219)"/>
<path d="M0 0 C4.29 0 8.58 0 13 0 C13 0.33 13 0.66 13 1 C11.58622218 1.36552803 10.16879424 1.71695495 8.75 2.0625 C7.96109375 2.25972656 7.1721875 2.45695313 6.359375 2.66015625 C3.89605178 3.01497267 2.34395868 2.76877544 0 2 C0 1.34 0 0.68 0 0 Z " fill="#2CAE8D" transform="translate(305,185)"/>
<path d="M0 0 C2.88575819 0.39803561 3.82189513 0.79009069 5.75 3.0625 C6.1625 3.701875 6.575 4.34125 7 5 C6.01 5.495 6.01 5.495 5 6 C5 5.34 5 4.68 5 4 C4.360625 3.896875 3.72125 3.79375 3.0625 3.6875 C2.381875 3.460625 1.70125 3.23375 1 3 C0.67 2.01 0.34 1.02 0 0 Z " fill="#5D6C9C" transform="translate(176,250)"/>
<path d="M0 0 C0.66 0.66 1.32 1.32 2 2 C-2.43076923 5.07692308 -2.43076923 5.07692308 -5.3125 4.6875 C-5.869375 4.460625 -6.42625 4.23375 -7 4 C-2.25 1.125 -2.25 1.125 0 0 Z " fill="#2DAED5" transform="translate(426,246)"/>
<path d="M0 0 C0.66 0.33 1.32 0.66 2 1 C1.67 3.31 1.34 5.62 1 8 C-0.32 6.35 -1.64 4.7 -3 3 C-2.01 2.01 -1.02 1.02 0 0 Z " fill="#34A9D3" transform="translate(437,226)"/>
<path d="M0 0 C0.33 0 0.66 0 1 0 C1.19622241 4.21878192 0.80230168 7.17010894 -1 11 C-1.66 11 -2.32 11 -3 11 C-2.44894091 7.0507432 -1.61064629 3.65079826 0 0 Z " fill="#62B69C" transform="translate(266,201)"/>
<path d="M0 0 C0.66 0.99 1.32 1.98 2 3 C1.67 3.66 1.34 4.32 1 5 C-2.0625 5.625 -2.0625 5.625 -5 6 C-3.35 4.02 -1.7 2.04 0 0 Z " fill="#4C497B" transform="translate(98,193)"/>
<path d="M0 0 C1.65 0 3.3 0 5 0 C5 0.66 5 1.32 5 2 C5.66 2 6.32 2 7 2 C6.67 2.99 6.34 3.98 6 5 C4.68 4.34 3.36 3.68 2 3 C2 2.34 2 1.68 2 1 C1.34 0.67 0.68 0.34 0 0 Z " fill="#49497C" transform="translate(106,279)"/>
<path d="M0 0 C0.66 0 1.32 0 2 0 C2.25 2.3125 2.25 2.3125 2 5 C0 6.8125 0 6.8125 -2 8 C-1.34 5.36 -0.68 2.72 0 0 Z " fill="#609E99" transform="translate(239,271)"/>
<path d="M0 0 C1 2 1 2 0.375 4.0625 C-1 6 -1 6 -3.625 6.75 C-4.800625 6.87375 -4.800625 6.87375 -6 7 C-4.02 4.69 -2.04 2.38 0 0 Z " fill="#5DB9D4" transform="translate(412,257)"/>
<path d="M0 0 C2.475 0.495 2.475 0.495 5 1 C5.33 2.65 5.66 4.3 6 6 C5.34 6 4.68 6 4 6 C2.61061923 4.03852126 1.2739589 2.03833424 0 0 Z " fill="#47AACA" transform="translate(426,220)"/>
<path d="M0 0 C1.65 0.33 3.3 0.66 5 1 C4.01 2.485 4.01 2.485 3 4 C1.68 4 0.36 4 -1 4 C-0.67 2.68 -0.34 1.36 0 0 Z " fill="#16ADB0" transform="translate(353,186)"/>
<path d="M0 0 C1.98 0 3.96 0 6 0 C6.33 0.99 6.66 1.98 7 3 C6.34 3 5.68 3 5 3 C4.67 3.66 4.34 4.32 4 5 C2.68 3.35 1.36 1.7 0 0 Z " fill="#33B0C5" transform="translate(383,178)"/>
<path d="" fill="#FFFFFF" transform="translate(0,0)"/>
<path d="" fill="#FFFFFF" transform="translate(0,0)"/>
<path d="" fill="#FFFFFF" transform="translate(0,0)"/>
<path d="" fill="#FFFFFF" transform="translate(0,0)"/>
<path d="" fill="#FFFFFF" transform="translate(0,0)"/>
<path d="" fill="#FFFFFF" transform="translate(0,0)"/>
<path d="" fill="#FFFFFF" transform="translate(0,0)"/>
<path d="" fill="#FFFFFF" transform="translate(0,0)"/>
<path d="" fill="#FFFFFF" transform="translate(0,0)"/>
<path d="" fill="#FFFFFF" transform="translate(0,0)"/>
<path d="" fill="#FFFFFF" transform="translate(0,0)"/>
<path d="" fill="#FFFFFF" transform="translate(0,0)"/>
<path d="" fill="#FFFFFF" transform="translate(0,0)"/>
<path d="" fill="#FFFFFF" transform="translate(0,0)"/>
<path d="" fill="#FFFFFF" transform="translate(0,0)"/>
<path d="" fill="#FFFFFF" transform="translate(0,0)"/>
<path d="" fill="#FFFFFF" transform="translate(0,0)"/>
<path d="" fill="#FFFFFF" transform="translate(0,0)"/>
<path d="" fill="#FFFFFF" transform="translate(0,0)"/>
<path d="" fill="#FFFFFF" transform="translate(0,0)"/>
<path d="" fill="#FFFFFF" transform="translate(0,0)"/>
<path d="" fill="#FFFFFF" transform="translate(0,0)"/>
<path d="" fill="#FFFFFF" transform="translate(0,0)"/>
<path d="" fill="#FFFFFF" transform="translate(0,0)"/>
<path d="" fill="#FFFFFF" transform="translate(0,0)"/>
<path d="" fill="#FFFFFF" transform="translate(0,0)"/>
<path d="" fill="#FFFFFF" transform="translate(0,0)"/>
<path d="" fill="#FFFFFF" transform="translate(0,0)"/>
<path d="" fill="#FFFFFF" transform="translate(0,0)"/>
<path d="" fill="#FFFFFF" transform="translate(0,0)"/>
<path d="" fill="#FFFFFF" transform="translate(0,0)"/>
<path d="" fill="#FFFFFF" transform="translate(0,0)"/>
<path d="" fill="#FFFFFF" transform="translate(0,0)"/>
<path d="" fill="#FFFFFF" transform="translate(0,0)"/>
<path d="" fill="#FFFFFF" transform="translate(0,0)"/>
<path d="" fill="#FFFFFF" transform="translate(0,0)"/>
<path d="" fill="#FFFFFF" transform="translate(0,0)"/>
<path d="" fill="#FFFFFF" transform="translate(0,0)"/>
<path d="" fill="#FFFFFF" transform="translate(0,0)"/>
<path d="" fill="#FFFFFF" transform="translate(0,0)"/>
<path d="" fill="#FFFFFF" transform="translate(0,0)"/>
<path d="" fill="#FFFFFF" transform="translate(0,0)"/>
<path d="" fill="#FFFFFF" transform="translate(0,0)"/>
<path d="" fill="#FFFFFF" transform="translate(0,0)"/>
<path d="" fill="#FFFFFF" transform="translate(0,0)"/>
<path d="" fill="#FFFFFF" transform="translate(0,0)"/>
<path d="" fill="#FFFFFF" transform="translate(0,0)"/>
<path d="" fill="#FFFFFF" transform="translate(0,0)"/>
<path d="" fill="#FFFFFF" transform="translate(0,0)"/>
<path d="" fill="#FFFFFF" transform="translate(0,0)"/>
<path d="" fill="#FFFFFF" transform="translate(0,0)"/>
<path d="" fill="#FFFFFF" transform="translate(0,0)"/>
<path d="" fill="#FFFFFF" transform="translate(0,0)"/>
<path d="" fill="#FFFFFF" transform="translate(0,0)"/>
<path d="" fill="#FFFFFF" transform="translate(0,0)"/>
<path d="" fill="#FFFFFF" transform="translate(0,0)"/>
<path d="" fill="#FFFFFF" transform="translate(0,0)"/>
<path d="" fill="#FFFFFF" transform="translate(0,0)"/>
<path d="" fill="#FFFFFF" transform="translate(0,0)"/>
<path d="" fill="#FFFFFF" transform="translate(0,0)"/>
<path d="" fill="#FFFFFF" transform="translate(0,0)"/>
<path d="" fill="#FFFFFF" transform="translate(0,0)"/>
<path d="" fill="#FFFFFF" transform="translate(0,0)"/>
<path d="" fill="#FFFFFF" transform="translate(0,0)"/>
<path d="" fill="#FFFFFF" transform="translate(0,0)"/>
<path d="" fill="#FFFFFF" transform="translate(0,0)"/>
<path d="" fill="#FFFFFF" transform="translate(0,0)"/>
<path d="" fill="#FFFFFF" transform="translate(0,0)"/>
<path d="" fill="#FFFFFF" transform="translate(0,0)"/>
<path d="" fill="#FFFFFF" transform="translate(0,0)"/>
<path d="" fill="#FFFFFF" transform="translate(0,0)"/>
<path d="" fill="#FFFFFF" transform="translate(0,0)"/>
<path d="" fill="#FFFFFF" transform="translate(0,0)"/>
<path d="" fill="#FFFFFF" transform="translate(0,0)"/>
<path d="" fill="#FFFFFF" transform="translate(0,0)"/>
<path d="" fill="#FFFFFF" transform="translate(0,0)"/>
<path d="" fill="#FFFFFF" transform="translate(0,0)"/>
<path d="" fill="#FFFFFF" transform="translate(0,0)"/>
<path d="" fill="#FFFFFF" transform="translate(0,0)"/>
</svg>
